<svg xmlns="http://www.w3.org/2000/svg" width="36" height="36" viewBox="0 0 36 36" fill="none">
<rect x="2" y="2" width="32" height="32" rx="6" fill="#F3DB2B"/>
<path d="M20.977 7.87462V19.9594C20.977 19.9594 20.5788 23.5864 18.3355 24.7609C16.9495 25.5754 14.9763 26.5226 12.373 26.6036L13.8963 28.1246C13.8963 28.1246 18.457 27.7241 20.5383 25.8409C22.6195 23.9621 22.6983 21.6739 22.6983 20.7784V9.15262L20.977 7.87012V7.87687V7.87462Z" fill="#62B2E4"/>
<path d="M20.9766 7.87305V19.9578C20.9766 19.9578 20.5783 23.5848 18.3351 24.7593C16.9491 25.5738 14.9758 26.521 12.3726 26.602L11.5176 22.9728C11.5176 22.9728 13.3626 22.624 14.5888 22.2258C15.8151 21.8253 16.4653 19.744 16.4653 19.744V7.8753H20.9766V7.87305Z" fill="white"/>
</svg>