<svg xmlns="http://www.w3.org/2000/svg" width="36" height="36" viewBox="0 0 36 36" fill="none">
<rect x="2" y="2" width="32" height="32" rx="6" fill="#FF2E4D"/>
<path fill-rule="evenodd" clip-rule="evenodd" d="M5.54222 17.392C5.54532 17.3404 5.54843 17.2887 5.55165 17.2371C5.55875 17.1235 5.56643 17.01 5.57601 16.8964M12.5507 21.7201C12.5413 21.7367 12.531 21.755 12.5197 21.7756C12.5005 21.7464 12.4811 21.7181 12.4618 21.6905C12.4398 21.6591 12.418 21.6285 12.3965 21.5985C12.3153 21.4849 12.239 21.3783 12.1832 21.2616C12.1244 21.1339 12.0773 21.0003 12.0301 20.8667C11.9832 20.7338 11.9363 20.6008 11.8779 20.4734C11.7692 20.2351 11.7199 19.9809 11.6708 19.7281C11.6658 19.7022 11.6608 19.6764 11.6557 19.6506C11.6547 19.6454 11.6537 19.6402 11.6526 19.6351C11.6506 19.6248 11.6485 19.6145 11.6465 19.6041C11.6068 19.4015 11.5932 19.1931 11.5797 18.9871C11.5766 18.9391 11.5734 18.8912 11.57 18.8435C11.5455 18.53 11.5227 18.2164 11.4999 17.9034M12.9974 16.1572C13.0039 16.2684 13.0106 16.3797 13.0195 16.491C13.026 16.5758 13.0343 16.6604 13.0425 16.7445C13.0497 16.8183 13.0568 16.8917 13.0628 16.9646L13.0669 17.0072C13.087 17.2174 13.1071 17.4274 13.1214 17.6346C13.1289 17.7341 13.1338 17.8337 13.1386 17.9331C13.1477 18.12 13.1568 18.3063 13.1831 18.491C13.2018 18.6374 13.2094 18.7847 13.2169 18.9321C13.2316 19.2211 13.2463 19.5101 13.3462 19.7911C13.3796 19.881 13.3201 20.0142 13.2701 20.1263L13.2542 20.1621" fill="white"/>
<path fill-rule="evenodd" clip-rule="evenodd" d="M30.7511 21.1562C30.7449 21.8357 30.2943 22.3686 29.656 22.5211C29.4769 22.5649 29.2914 22.5772 29.1064 22.5838C28.9042 22.5903 28.7002 22.5891 28.4969 22.5878C28.4151 22.5873 28.3334 22.5868 28.252 22.5868C28.0761 22.5868 28.027 22.5522 27.962 22.3932C27.8655 22.1633 27.7658 21.9332 27.6661 21.703C27.6228 21.6029 27.5794 21.5027 27.5362 21.4025L27.5088 21.3373C27.4593 21.2098 27.475 21.1873 27.6106 21.1873C27.7309 21.1863 27.8515 21.1866 27.9723 21.1869C28.2445 21.1875 28.5174 21.1881 28.7887 21.1751C29.0233 21.1628 29.1221 21.0566 29.1285 20.8165C29.1333 20.5756 29.1296 20.3348 29.126 20.0941C29.1227 19.8769 29.1194 19.6597 29.1223 19.4425C29.1255 19.2147 28.8384 18.9684 28.6349 18.9561C28.597 18.9525 28.5589 18.9505 28.5208 18.9502C27.7434 18.9502 26.9628 18.9502 26.1858 18.9531C25.9667 18.9531 25.9512 18.9752 25.9512 19.1964L25.9599 22.4149C25.9599 22.5868 25.9567 22.5898 25.784 22.5898H24.4883C24.3218 22.5898 24.3099 22.577 24.3099 22.4119V20.7545C24.3124 20.7604 24.3154 20.7604 24.3186 20.7604V19.0592C24.3186 18.9438 24.2417 18.9372 24.1616 18.9372C24.0009 18.9386 23.8398 18.9408 23.6787 18.943C23.4158 18.9466 23.1527 18.9502 22.8908 18.9502C22.7483 18.9502 22.6841 18.9585 22.6552 18.9305C22.6257 18.902 22.6328 18.8358 22.6311 18.685C22.629 18.4109 22.6297 18.135 22.6304 17.8597C22.6308 17.7223 22.6311 17.585 22.6311 17.4482C22.6311 17.2989 22.6464 17.2799 22.795 17.2768C23.017 17.2753 23.2383 17.2753 23.4597 17.2753C23.6811 17.2753 23.9025 17.2753 24.1246 17.2738C24.2944 17.2738 24.3035 17.2672 24.3065 17.0989C24.3074 16.9834 24.3075 16.8678 24.3073 16.7522C24.3072 16.6623 24.3068 16.5723 24.3065 16.4823C24.3057 16.2767 24.3049 16.0709 24.3065 15.8651C24.3065 15.7621 24.2631 15.731 24.1648 15.731C24.0211 15.7327 23.8766 15.7319 23.7322 15.7311C23.6485 15.7306 23.5647 15.7302 23.4811 15.7302C23.4239 15.7302 23.3668 15.7304 23.3098 15.731C23.2205 15.731 23.1895 15.7 23.1895 15.6097C23.1933 15.1421 23.1933 14.6776 23.187 14.2102C23.187 14.098 23.2299 14.0736 23.3287 14.0736C23.5034 14.0757 23.6784 14.075 23.8534 14.0743C23.9408 14.0739 24.0282 14.0736 24.1155 14.0736C24.2912 14.0736 24.3005 14.0608 24.3035 13.8768C24.3035 13.8407 24.3042 13.8045 24.3049 13.7682C24.3062 13.6956 24.3076 13.6229 24.3035 13.55C24.3005 13.447 24.3468 13.4189 24.4422 13.4189C24.8189 13.4221 25.1984 13.4221 25.5745 13.4221H25.781C25.9448 13.4221 25.9478 13.4221 25.9542 13.5904C25.9556 13.6403 25.954 13.691 25.9524 13.7416C25.9508 13.7922 25.9492 13.8428 25.9506 13.8928C25.9537 14.033 25.9909 14.0702 26.1297 14.0738C26.3642 14.077 26.5988 14.077 26.8361 14.077C27.4438 14.0799 27.9718 14.2886 28.3723 14.753C28.5945 15.0114 28.7333 15.3265 28.7547 15.6722C28.7686 15.8953 28.7675 16.1198 28.7665 16.344C28.7662 16.4046 28.7659 16.4653 28.7659 16.5259C28.7659 16.5945 28.7663 16.6631 28.7675 16.7316C28.7675 16.8316 28.7728 16.9334 28.7781 17.034L28.7828 17.1272C28.7887 17.2583 28.82 17.2923 28.9525 17.2893C29.2219 17.2797 29.4905 17.3243 29.7423 17.4204C30.2822 17.6295 30.6151 18.0091 30.7233 18.5828C30.7443 18.6968 30.7545 18.8126 30.7539 18.9285C30.7573 19.6709 30.7566 20.4134 30.7511 21.1562ZM26.5887 15.7049C26.7289 15.7049 26.8696 15.7049 27.0104 15.7065C27.0814 15.7095 27.1488 15.7391 27.1991 15.7894C27.2494 15.8396 27.279 15.907 27.2821 15.978C27.2834 16.1519 27.2842 16.3257 27.2849 16.4996C27.2858 16.7106 27.2867 16.9216 27.2887 17.1328C27.292 17.2369 27.2479 17.2907 27.1354 17.2907C26.9853 17.2891 26.8354 17.2891 26.6854 17.2891C26.5355 17.2891 26.3855 17.2891 26.2355 17.2875C26.0767 17.2875 26.0481 17.2554 26.0481 17.0913C26.0466 16.9903 26.0466 16.8886 26.0466 16.7865C26.0466 16.6844 26.0466 16.582 26.0451 16.4795C26.0451 16.2654 26.0451 16.0536 26.0419 15.839C26.0419 15.7478 26.0703 15.7033 26.1699 15.7033C26.3087 15.7049 26.4485 15.7049 26.5887 15.7049Z" fill="white"/>
<path d="M30.3712 15.5757C30.1297 15.7344 29.8764 15.7319 29.5847 15.7289L29.5659 15.7287L29.4966 15.729C29.416 15.7296 29.3221 15.7302 29.2298 15.7255C29.199 15.7225 29.1465 15.6847 29.1431 15.6596L29.1351 15.5567C29.1085 15.2233 29.0817 14.8881 29.1992 14.5661C29.3135 14.2516 29.597 14.0674 29.9303 14.0615C30.1104 14.0602 30.2861 14.1175 30.4307 14.2248C30.5754 14.3322 30.6812 14.4836 30.7322 14.6564C30.828 14.9995 30.6676 15.3794 30.3712 15.5757Z" fill="white"/>
<path d="M22.5056 22.6057H17.3043C17.2329 22.5966 17.1596 22.5966 17.0576 22.5966C17.0667 22.5697 17.0749 22.5448 17.0825 22.5216C17.1057 22.451 17.1239 22.3956 17.1469 22.3442C17.2151 22.1945 17.2837 22.0453 17.3521 21.8962L17.3998 21.7924C17.5108 21.5506 17.6214 21.309 17.7301 21.0664C17.7735 20.9695 17.8351 20.945 17.9275 20.945H19.1184C19.3071 20.945 19.3158 20.9355 19.3158 20.7483V15.9089C19.3158 15.7438 19.3126 15.7406 19.1464 15.7406C19.0621 15.7406 18.9775 15.7402 18.8928 15.7399C18.7231 15.7392 18.5531 15.7385 18.3843 15.7406C18.2885 15.7406 18.2485 15.7191 18.2485 15.6099C18.2532 15.2664 18.2526 14.9233 18.2521 14.5803C18.2519 14.4686 18.2517 14.3569 18.2517 14.2452C18.2517 14.0831 18.2549 14.0831 18.4119 14.0831H21.4413C21.4998 14.0831 21.5587 14.0835 21.6177 14.0838C21.6805 14.0842 21.7436 14.0846 21.8064 14.0845C21.8618 14.0845 21.9171 14.0841 21.9721 14.0831C22.0558 14.0831 22.0893 14.1173 22.0862 14.2015C22.083 14.6751 22.083 15.1487 22.083 15.6254C22.083 15.7096 22.0524 15.7406 21.9657 15.7406C21.8007 15.7387 21.6367 15.7402 21.4722 15.7416C21.3635 15.7426 21.2545 15.7436 21.1449 15.7436C21.0497 15.7436 21.0064 15.7876 21.0064 15.8874C21.0096 16.6506 21.0123 17.4108 21.0123 18.1744C21.0123 19.0407 21.0123 19.9069 21.0155 20.7761C21.0155 20.9321 21.0308 20.951 21.1889 20.951H22.4935C22.6352 20.951 22.6541 20.9663 22.6569 21.1095C22.6587 21.3372 22.6587 21.5647 22.6587 21.7921C22.6587 22.0196 22.6587 22.2469 22.6605 22.4744C22.66 22.5934 22.5952 22.6057 22.5056 22.6057Z" fill="white"/>
<path d="M16.911 20.1683C16.8813 20.201 16.8408 20.2221 16.7969 20.2277C16.2203 20.2309 15.64 20.2339 15.0634 20.2246C14.8875 20.2209 14.7086 20.1808 14.576 20.0467C14.4368 19.9065 14.3691 19.7412 14.4398 19.5512C14.5676 19.2159 14.7002 18.8824 14.8376 18.5509C14.9599 18.2624 15.0834 17.9736 15.2129 17.671L15.3377 17.3792C15.3074 17.3772 15.2808 17.3753 15.2569 17.3735C15.2053 17.3697 15.1661 17.3668 15.1282 17.3668C15.0723 17.3659 15.0163 17.3669 14.9604 17.3679C14.8466 17.3699 14.7327 17.372 14.6189 17.3573C14.4339 17.3358 14.2458 17.3139 14.1009 17.1584C13.9588 17.0054 13.9371 16.8246 13.9928 16.647C14.082 16.3636 14.1993 16.0893 14.3166 15.815C14.3802 15.6688 14.4488 15.5247 14.5172 15.3808C14.5684 15.2733 14.6195 15.1659 14.6684 15.0579C14.7807 14.8112 14.8901 14.5646 14.9996 14.3179L15.0324 14.2442C15.1399 14.0051 15.2458 13.7653 15.35 13.5248C15.3806 13.4498 15.4276 13.4219 15.5107 13.4219C15.8133 13.4239 16.117 13.4232 16.4203 13.4226C16.5719 13.4223 16.7233 13.4219 16.8745 13.4219C17.0254 13.4219 17.0285 13.4372 16.9699 13.5749C16.8709 13.8044 16.7713 14.0335 16.6718 14.2626L16.6712 14.264L16.6098 14.4053C16.4667 14.7347 16.3239 15.0642 16.1831 15.3945C16.1519 15.4575 16.135 15.5267 16.1336 15.597C16.1428 15.7591 16.177 15.7839 16.3438 15.7839C16.5701 15.7861 16.7966 15.7854 17.0221 15.7846C17.1344 15.7843 17.2466 15.7839 17.3583 15.7839C17.4001 15.7839 17.4427 15.7873 17.485 15.7907C17.512 15.7929 17.5388 15.795 17.5652 15.7963C17.6611 15.7995 17.6734 15.8402 17.633 15.9237C17.4452 16.3266 17.26 16.7308 17.0774 17.1361C16.9999 17.3126 16.9246 17.4901 16.8494 17.6674C16.8023 17.7784 16.7552 17.8893 16.7077 17.9998C16.6233 18.1912 16.538 18.3822 16.4517 18.5728C16.3712 18.7473 16.4266 18.8348 16.624 18.838C16.7073 18.838 16.7906 18.8383 16.8739 18.8387C16.9572 18.839 17.0404 18.8394 17.1237 18.8394C17.2069 18.8394 17.2902 18.839 17.3734 18.838C17.4601 18.838 17.5034 18.8631 17.4601 18.9563C17.3817 19.1342 17.304 19.3129 17.2263 19.4917C17.1543 19.6572 17.0823 19.8227 17.0098 19.9877C16.982 20.0499 16.9514 20.1151 16.911 20.1683Z" fill="white"/>
<path d="M16.7517 21.0757C16.6785 21.2444 16.6019 21.4108 16.5253 21.5771C16.4761 21.6841 16.4268 21.791 16.3786 21.8984C16.3442 21.9769 16.3107 22.0554 16.2776 22.134L16.21 22.2955L16.1808 22.3654C16.1039 22.5526 16.0514 22.5898 15.854 22.5898H14.9287C14.8348 22.5898 14.741 22.5907 14.6472 22.5915C14.4292 22.5936 14.2114 22.5956 13.9936 22.5866C13.8874 22.5823 13.7826 22.5569 13.6771 22.5313C13.6357 22.5213 13.5942 22.5112 13.5525 22.5024C13.4782 22.4871 13.4629 22.4434 13.4939 22.372C13.6817 21.9687 13.8678 21.5646 14.0521 21.1596C14.0695 21.1221 14.0853 21.0836 14.1013 21.0448C14.125 20.9871 14.1489 20.9289 14.1785 20.873C14.1908 20.8475 14.2371 20.8199 14.2615 20.8261C14.7449 20.9488 15.2389 20.9426 15.7307 20.9365L15.8287 20.9353C16.1064 20.9321 16.3841 20.9321 16.6618 20.9353C16.7944 20.9355 16.8071 20.9542 16.7517 21.0757Z" fill="white"/>
<path d="M13.2542 20.1621C13.1091 20.4986 12.9594 20.832 12.8096 21.1655C12.7458 21.3076 12.682 21.4497 12.6185 21.592C12.6059 21.6234 12.5882 21.6545 12.5631 21.6984L12.5507 21.7201C12.5413 21.7367 12.531 21.755 12.5197 21.7756C12.5005 21.7464 12.4811 21.7181 12.4618 21.6905C12.4398 21.6591 12.418 21.6285 12.3965 21.5985C12.3153 21.4849 12.239 21.3783 12.1832 21.2616C12.1244 21.1339 12.0773 21.0003 12.0301 20.8667C11.9832 20.7338 11.9363 20.6008 11.8779 20.4734C11.7692 20.2351 11.7199 19.9809 11.6708 19.7281L11.6557 19.6506L11.6526 19.6351L11.6465 19.6041C11.6068 19.4015 11.5932 19.1931 11.5797 18.9871C11.5766 18.9391 11.5734 18.8912 11.57 18.8435C11.5455 18.53 11.5227 18.2164 11.4999 17.9034C11.4762 17.5785 11.4526 17.2541 11.4272 16.9306C11.4003 16.5824 11.3716 16.2343 11.3412 15.8864C11.335 15.8241 11.3507 15.7961 11.4217 15.7961C11.7365 15.7961 12.0499 15.7934 12.3637 15.7907C12.5267 15.7893 12.6898 15.7879 12.8533 15.7869C12.9425 15.7869 12.9797 15.8271 12.9827 15.9112C12.9869 15.9772 12.9907 16.0433 12.9946 16.1093L12.9974 16.1572C13.0039 16.2684 13.0106 16.3797 13.0195 16.491C13.026 16.5758 13.0343 16.6604 13.0425 16.7445C13.0497 16.8183 13.0568 16.8917 13.0628 16.9646L13.0669 17.0072C13.087 17.2174 13.1071 17.4274 13.1214 17.6346C13.1289 17.7341 13.1338 17.8337 13.1386 17.9331C13.1477 18.12 13.1568 18.3063 13.1831 18.491C13.2018 18.6374 13.2094 18.7847 13.2169 18.9321C13.2316 19.2211 13.2463 19.5101 13.3462 19.7911C13.3796 19.881 13.3201 20.0142 13.2701 20.1263L13.2542 20.1621Z" fill="white"/>
<path d="M10.1175 21.3617C10.0869 21.7543 9.90444 22.0877 9.59593 22.3369C9.3705 22.5175 9.10853 22.5925 8.82148 22.5893C8.74013 22.5893 8.65913 22.589 8.57825 22.5886C8.41685 22.5879 8.25591 22.5872 8.09356 22.5893C8.01048 22.5893 7.95779 22.5643 7.9238 22.4833C7.85175 22.3218 7.77888 22.1602 7.70603 21.9986C7.63557 21.8423 7.56513 21.686 7.49546 21.53C7.48348 21.5043 7.47621 21.4777 7.46899 21.4512C7.46301 21.4294 7.45706 21.4076 7.4485 21.3866C7.38073 21.2153 7.3837 21.2087 7.57195 21.2055H8.14901C8.3959 21.2055 8.50086 21.1031 8.50384 20.8501C8.50681 20.6603 8.50681 20.4704 8.50681 20.28V17.2606C8.51297 17.2672 8.51595 17.2672 8.51914 17.2672V13.7085C8.51914 13.5307 8.5253 13.5245 8.70122 13.5245H9.91357C10.1267 13.5245 10.1297 13.5307 10.1297 13.7489C10.1297 14.8771 10.1297 16.0049 10.1328 17.1302C10.1341 17.5209 10.1363 17.9117 10.1385 18.3025C10.1418 18.9026 10.1452 19.5027 10.1452 20.1026L10.1454 20.2714C10.1461 20.6358 10.1468 20.9994 10.1175 21.3617Z" fill="white"/>
<path d="M7.15912 17.7378L7.14887 17.8861C7.12195 18.2768 7.09492 18.6692 7.05097 19.0594C6.96429 19.8226 6.79197 20.5643 6.44331 21.2531C6.38538 21.3638 6.31336 21.4665 6.23554 21.5775C6.19291 21.6383 6.14853 21.7016 6.10378 21.7701C6.0749 21.7092 6.04772 21.6532 6.02193 21.6C5.97906 21.5117 5.94004 21.4313 5.90342 21.3496C5.69616 20.8864 5.49155 20.4221 5.2896 19.9566C5.26772 19.9067 5.25242 19.8353 5.2743 19.7915C5.39781 19.5275 5.41419 19.2469 5.43063 18.9653L5.43429 18.9032C5.4501 18.6635 5.46828 18.425 5.48648 18.1863C5.49614 18.0596 5.50581 17.9327 5.51513 17.8057L5.518 17.7663C5.52723 17.6413 5.53473 17.5166 5.54222 17.392L5.55165 17.2371C5.55875 17.1235 5.56643 17.01 5.57601 16.8964C5.58986 16.7304 5.60515 16.5643 5.62042 16.3985C5.63607 16.2285 5.65169 16.059 5.66567 15.8902C5.67183 15.8086 5.70901 15.7839 5.78295 15.7839C6.24295 15.7839 6.69912 15.7839 7.15912 15.781C7.25749 15.781 7.28554 15.8218 7.27938 15.915C7.26556 16.1239 7.2521 16.3329 7.23864 16.5419C7.21296 16.9405 7.18727 17.3392 7.15912 17.7378Z" fill="white"/>
</svg>