<svg width="36" height="36" viewBox="0 0 36 36" fill="none" xmlns="http://www.w3.org/2000/svg">
<rect x="2" y="2" width="32" height="32" rx="6" fill="url(#paint0_linear_10686_52485)"/>
<path d="M15.668 28.6676C10.068 28.6676 4.66797 26.0009 4.66797 21.3342C4.66797 16.0009 13.1324 9.15916 16.3346 10.0848C19.0013 10.8556 17.3346 13.7515 17.668 14.0848C18.0013 14.4181 22.0013 12.4181 23.668 13.4181C25.4982 14.5163 24.0013 16.7515 24.3346 17.0848C24.5982 17.3483 27.668 17.7515 27.668 20.7515C27.668 24.7515 22.668 28.6676 15.668 28.6676Z" fill="#E93045"/>
<path d="M23.1981 20.8426C23.4915 23.7208 20.2119 26.4126 15.8728 26.8549C11.5338 27.2972 7.77844 25.3225 7.48504 22.4443C7.19165 19.5662 10.4713 16.8744 14.8104 16.432C19.1494 15.9897 22.9048 17.9644 23.1981 20.8426Z" fill="white"/>
<path d="M18.8275 21.1833C19.2992 23.0969 17.8775 25.0929 15.6519 25.6415C13.4264 26.1901 11.2398 25.0836 10.7681 23.17C10.2964 21.2564 11.7181 19.2604 13.9437 18.7118C16.1692 18.1632 18.3558 19.2697 18.8275 21.1833Z" fill="black"/>
<path d="M14.6005 22.081C14.9581 22.7432 14.6237 23.6173 13.8535 24.0332C13.0833 24.4491 12.169 24.2495 11.8114 23.5873C11.4537 22.925 11.7881 22.051 12.5583 21.6351C13.3285 21.2191 14.2428 21.4188 14.6005 22.081Z" fill="white"/>
<ellipse cx="15.8022" cy="21.5165" rx="0.621059" ry="0.534003" transform="rotate(-28.3716 15.8022 21.5165)" fill="white"/>
<path d="M22.4941 10.7017C22.6598 10.6788 22.8289 10.667 23.0009 10.667C25.0259 10.667 26.6675 12.3086 26.6675 14.3337C26.6675 14.5613 26.6468 14.7841 26.6071 15.0003" stroke="#FF9933" stroke-width="1.73333" stroke-linecap="round"/>
<path d="M29.9437 15.2305C29.9812 14.937 30.0006 14.6377 30.0006 14.334C30.0006 10.468 26.8666 7.33398 23.0006 7.33398C22.7276 7.33398 22.4582 7.34961 22.1934 7.38002" stroke="#FF9933" stroke-width="1.73333" stroke-linecap="round"/>
<defs>
<linearGradient id="paint0_linear_10686_52485" x1="18" y1="2" x2="18" y2="34" gradientUnits="userSpaceOnUse">
<stop stop-color="#FFEDB8"/>
<stop offset="1" stop-color="#FFD000"/>
</linearGradient>
</defs>
</svg>
