<svg xmlns="http://www.w3.org/2000/svg" width="36" height="36" viewBox="0 0 36 36" fill="none">
<rect x="2" y="2" width="32" height="32" rx="6" fill="#01CC7A"/>
<path d="M15.7842 8.24107C21.9294 6.36747 25.0612 12.0948 25.0612 12.0948C23.9294 11.4773 20.5337 10.7915 16.8981 12.6779C13.2626 14.5643 12.5079 18.6804 12.5079 18.6804C11.03 17.1035 10.963 14.5612 10.963 14.5612C11.1378 9.78987 15.7842 8.24107 15.7842 8.24107Z" fill="white"/>
<path d="M22.8039 27.2014C23.3785 26.9268 26.1764 23.629 24.8521 19.1575C23.5278 14.686 19.0316 13.6868 19.0316 13.6868C21.33 12.7125 24.0279 13.4368 24.0279 13.4368C28.1248 14.6359 28.5995 18.5332 28.5995 18.5332C29.3988 25.5026 22.8039 27.2014 22.8039 27.2014Z" fill="white"/>
<path d="M13.8857 27.8757C4.99253 26.1522 7.01582 18.3831 9.23929 14.9607C9.23929 14.9607 9.1392 19.757 13.7609 22.4052C13.7609 22.4052 14.3104 22.6549 14.1356 23.4542L13.9607 24.4784C13.9607 24.4784 13.7296 25.178 14.17 25.2528C14.17 25.2528 14.3106 25.2528 14.6352 25.0279L16.334 23.9038C16.334 23.9038 16.6837 23.654 17.1333 23.7289C17.5829 23.8039 20.4558 24.5534 23.3036 22.1803C23.3036 22.1803 22.779 29.5995 13.8857 27.8757Z" fill="white"/>
</svg>