<svg width="30" height="30" viewBox="0 0 30 30" fill="none" xmlns="http://www.w3.org/2000/svg">
<circle cx="15" cy="15" r="15" fill="white" fill-opacity="0.1"/>
<circle cx="15" cy="15" r="14.75" stroke="white" stroke-opacity="0.15" stroke-width="0.5"/>
<path d="M15.7934 11H11.5267C11.3534 11 11.1867 11.0067 11.0267 11.0267C9.23337 11.18 8.33337 12.24 8.33337 14.1933V16.86C8.33337 19.5267 9.40004 20.0533 11.5267 20.0533H11.7934C11.94 20.0533 12.1334 20.1533 12.22 20.2667L13.02 21.3333C13.3734 21.8067 13.9467 21.8067 14.3 21.3333L15.1 20.2667C15.2 20.1333 15.36 20.0533 15.5267 20.0533H15.7934C17.7467 20.0533 18.8067 19.16 18.96 17.36C18.98 17.2 18.9867 17.0333 18.9867 16.86V14.1933C18.9867 12.0667 17.92 11 15.7934 11ZM11.3334 16.3333C10.96 16.3333 10.6667 16.0333 10.6667 15.6667C10.6667 15.3 10.9667 15 11.3334 15C11.7 15 12 15.3 12 15.6667C12 16.0333 11.7 16.3333 11.3334 16.3333ZM13.66 16.3333C13.2867 16.3333 12.9934 16.0333 12.9934 15.6667C12.9934 15.3 13.2934 15 13.66 15C14.0267 15 14.3267 15.3 14.3267 15.6667C14.3267 16.0333 14.0334 16.3333 13.66 16.3333ZM15.9934 16.3333C15.62 16.3333 15.3267 16.0333 15.3267 15.6667C15.3267 15.3 15.6267 15 15.9934 15C16.36 15 16.66 15.3 16.66 15.6667C16.66 16.0333 16.36 16.3333 15.9934 16.3333Z" fill="#9EDDA4"/>
<path d="M21.6533 11.5266V14.1933C21.6533 15.5266 21.24 16.4333 20.4133 16.9333C20.2133 17.0533 19.98 16.8933 19.98 16.6599L19.9866 14.1933C19.9866 11.5266 18.46 9.99992 15.7933 9.99992L11.7333 10.0066C11.5 10.0066 11.34 9.77325 11.46 9.57325C11.96 8.74659 12.8666 8.33325 14.1933 8.33325H18.46C20.5866 8.33325 21.6533 9.39992 21.6533 11.5266Z" fill="#9EDDA4"/>
</svg>
