<svg width="30" height="30" viewBox="0 0 30 30" fill="none" xmlns="http://www.w3.org/2000/svg">
<circle cx="15" cy="15" r="15" fill="black" fill-opacity="0.04"/>
<circle cx="15" cy="15" r="14.75" stroke="black" stroke-opacity="0.06" stroke-width="0.5"/>
<path d="M15.7933 11H11.5266C11.3533 11 11.1866 11.0067 11.0266 11.0267C9.23325 11.18 8.33325 12.24 8.33325 14.1933V16.86C8.33325 19.5267 9.39992 20.0533 11.5266 20.0533H11.7933C11.9399 20.0533 12.1333 20.1533 12.2199 20.2667L13.0199 21.3333C13.3733 21.8067 13.9466 21.8067 14.2999 21.3333L15.0999 20.2667C15.1999 20.1333 15.3599 20.0533 15.5266 20.0533H15.7933C17.7466 20.0533 18.8066 19.16 18.9599 17.36C18.9799 17.2 18.9866 17.0333 18.9866 16.86V14.1933C18.9866 12.0667 17.9199 11 15.7933 11ZM11.3333 16.3333C10.9599 16.3333 10.6666 16.0333 10.6666 15.6667C10.6666 15.3 10.9666 15 11.3333 15C11.6999 15 11.9999 15.3 11.9999 15.6667C11.9999 16.0333 11.6999 16.3333 11.3333 16.3333ZM13.6599 16.3333C13.2866 16.3333 12.9933 16.0333 12.9933 15.6667C12.9933 15.3 13.2933 15 13.6599 15C14.0266 15 14.3266 15.3 14.3266 15.6667C14.3266 16.0333 14.0333 16.3333 13.6599 16.3333ZM15.9933 16.3333C15.6199 16.3333 15.3266 16.0333 15.3266 15.6667C15.3266 15.3 15.6266 15 15.9933 15C16.3599 15 16.6599 15.3 16.6599 15.6667C16.6599 16.0333 16.3599 16.3333 15.9933 16.3333Z" fill="#9EDDA4"/>
<path d="M21.6534 11.5266V14.1933C21.6534 15.5266 21.2401 16.4333 20.4134 16.9333C20.2134 17.0533 19.9801 16.8933 19.9801 16.6599L19.9867 14.1933C19.9867 11.5266 18.4601 9.99992 15.7934 9.99992L11.7334 10.0066C11.5001 10.0066 11.3401 9.77325 11.4601 9.57325C11.9601 8.74659 12.8667 8.33325 14.1934 8.33325H18.4601C20.5867 8.33325 21.6534 9.39992 21.6534 11.5266Z" fill="#9EDDA4"/>
</svg>
