<svg width="31" height="17" viewBox="0 0 31 17" fill="none" xmlns="http://www.w3.org/2000/svg">
<path d="M14.4337 0.215827C14.5029 0.215903 14.5584 0.267619 14.5584 0.336999C14.5594 1.35288 14.5662 8.51027 14.561 12.2233C14.561 12.7245 14.382 13.1543 14.057 13.5071C13.7683 13.8203 13.4151 14.0052 13.0034 14.0158C12.5417 14.0281 12.0795 14.0204 11.6123 14.0191C11.5431 14.0189 11.4869 13.9626 11.4869 13.8931V11.3774C11.4869 11.3079 11.543 11.2516 11.6122 11.2515H11.8112C11.9497 11.2515 12.062 11.1388 12.062 10.9999V3.08094C12.062 3.01145 12.0062 2.95512 11.9369 2.95509H11.1379C11.0686 2.95511 11.0126 3.00678 11.0126 3.07627C11.0131 4.04379 11.0158 10.5611 11.0097 13.9452C11.0097 14.0655 11.0099 14.1864 11.0103 14.3076C11.0133 15.2806 10.231 16.0699 9.26105 16.0706C9.05313 16.0708 8.84517 16.0709 8.63725 16.0709C8.56799 16.0709 8.51179 16.0155 8.51178 15.946C8.51158 14.7512 8.51015 5.27739 8.51092 0.339456C8.51094 0.269989 8.56702 0.216469 8.63627 0.216441H10.8822C10.9515 0.216441 11.0077 0.272802 11.0077 0.342283V0.71821C11.0077 0.71821 11.6602 0.216318 12.0667 0.216318C12.7308 0.214205 14.0277 0.215383 14.4337 0.215827Z" fill="white"/>
<path d="M25.9787 0.21595C26.0416 0.215943 26.0947 0.262757 26.1029 0.325324L26.1233 0.47927C26.1323 0.547351 26.1124 0.615722 26.0722 0.671364C25.7987 1.0495 25.658 1.50506 25.7048 1.97663C25.766 2.59425 26.0512 3.00342 26.403 3.36635C26.4395 3.40401 26.4642 3.45161 26.4728 3.50335L26.6204 4.38839C26.6344 4.47186 26.7251 4.51804 26.8008 4.48019L27.4351 4.16296C27.4701 4.14545 27.5086 4.13635 27.5477 4.13637C28.4469 4.13684 29.4534 4.13635 29.7242 4.13609C29.7707 4.13605 29.8155 4.14894 29.855 4.17357C29.9314 4.22126 30.0636 4.30481 30.1524 4.36688C30.2071 4.40518 30.2354 4.46836 30.2327 4.53512C29.9368 5.94064 28.9818 6.87641 27.5415 6.87867C27.3527 6.87897 27.1638 6.87913 26.975 6.87917C26.9361 6.87919 26.906 6.91324 26.9107 6.95192L27.1308 8.77748C27.1414 8.86537 27.2367 8.91511 27.3145 8.87334L29.7521 7.56306C29.8357 7.51815 29.9368 7.57846 29.9368 7.67354V8.26982C29.9368 9.59509 29.2429 10.8233 28.0829 11.4576C27.8923 11.5618 27.7723 11.6265 27.7723 11.6265L27.4173 11.8154C27.3712 11.8399 27.345 11.8898 27.3515 11.9417C27.3814 12.1786 27.4658 12.8485 27.5099 13.2032C27.5178 13.2662 27.5711 13.3133 27.6344 13.3133H30.1678C30.2048 13.3133 30.2348 13.3448 30.2348 13.3819C30.2356 14.8666 29.0441 16.0623 27.564 16.0665C27.3996 16.0669 27.2687 16.0677 27.1893 16.0688C26.8157 16.0742 26.4476 16.05 26.1026 15.8878C25.4162 15.565 25.0516 14.9875 24.9582 14.2077C24.9272 13.9504 24.9031 13.7963 24.8584 13.4883C24.8456 13.3999 24.7477 13.3524 24.6705 13.397C24.0243 13.7704 23.3534 14.1303 22.6853 14.4764C22.6029 14.519 22.5047 14.4605 22.5035 14.3675C22.4923 13.4944 22.5065 12.0267 22.5102 11.6796C22.5107 11.6327 22.5372 11.5912 22.5788 11.5697C23.2309 11.2334 23.8534 10.8443 24.4954 10.4899C24.5848 10.4405 24.6365 10.3428 24.6255 10.241C24.569 9.71721 24.3932 8.08958 24.2857 7.10283C24.2719 6.97548 24.1648 6.87881 24.0371 6.87867C23.1993 6.87783 22.3614 6.88514 21.5236 6.88568C21.3853 6.88577 21.273 6.99767 21.2728 7.13638C21.2724 7.42814 21.2729 7.78133 21.2732 7.98176C21.2733 8.06316 21.3494 8.12266 21.4282 8.10342L23.1544 7.68227C23.1995 7.67128 23.2429 7.70541 23.2429 7.75195V9.27532C23.2429 9.93332 22.8246 10.5385 22.1897 10.7037C21.9597 10.7634 21.5417 10.8935 21.3614 10.9502C21.3096 10.9666 21.2746 11.0132 21.2741 11.0677C21.2704 11.5198 21.2503 13.5604 21.1833 14.6064C21.0572 15.0164 20.8562 15.4368 20.5224 15.692C20.211 15.9305 19.8634 16.064 19.4797 16.0671C18.4421 16.0753 17.4045 16.0611 16.3669 16.0671C16.2975 16.0675 16.2408 16.0113 16.2406 15.9416C16.2395 15.5277 16.2366 14.1949 16.2405 13.426C16.2408 13.3567 16.2965 13.3015 16.3656 13.3016C17.0583 13.3027 18.1761 13.3018 18.5476 13.3015C18.6169 13.3015 18.6723 13.2451 18.6723 13.1757V11.7488C18.6723 11.6679 18.5973 11.6079 18.5188 11.6261C18.1264 11.7171 17.0701 11.9631 16.3968 12.1289C16.3176 12.1483 16.2411 12.0892 16.2411 12.0073C16.2411 11.3655 16.2412 9.83976 16.2412 9.43594C16.2412 9.37759 16.2802 9.32721 16.3368 9.31378C16.7174 9.22351 18.1193 8.89081 18.4509 8.80907C18.6595 8.75761 18.6747 8.73441 18.6771 8.50835C18.6818 8.04496 18.6858 7.58149 18.686 7.11807C18.6861 6.97989 18.5748 6.86782 18.437 6.86725C17.7469 6.86456 17.0564 6.86663 16.3663 6.86688C16.297 6.86687 16.2407 6.81037 16.2408 6.74079C16.2422 5.91193 16.2409 5.08305 16.2407 4.25419C16.2407 4.18495 16.2964 4.12872 16.3655 4.12847C17.0513 4.12616 17.7371 4.13288 18.4229 4.13437C18.5619 4.13467 18.6745 4.02125 18.6743 3.88183C18.6742 3.68041 18.6747 3.47898 18.6748 3.27756C18.6749 3.20388 18.6121 3.14592 18.5389 3.15209C17.8188 3.21298 17.0981 3.27197 16.3791 3.34552C16.305 3.3531 16.2406 3.29534 16.2406 3.22066V0.959202C16.2406 0.894409 16.2896 0.840356 16.3539 0.834098L22.5877 0.228485C22.6586 0.221597 22.7205 0.27452 22.7214 0.34597C22.7273 0.817123 22.6787 2.42732 21.7609 2.81586C21.6306 2.87108 21.4952 2.91175 21.3624 2.95964C21.3138 2.97718 21.2822 3.02396 21.2822 3.07577L21.2832 3.88908C21.2834 4.02794 21.3957 4.14039 21.5342 4.14039H23.7368C23.886 4.14038 24.0024 4.01164 23.9862 3.86278C23.9125 3.18523 23.7201 1.4246 23.5959 0.356293C23.5872 0.281419 23.6452 0.215897 23.7203 0.21595C24.4628 0.216474 25.6199 0.216099 25.9787 0.21595Z" fill="white"/>
<path fill-rule="evenodd" clip-rule="evenodd" d="M7.83292 0.214844C7.9022 0.214844 7.9584 0.271185 7.95839 0.340685C7.95811 2.95246 7.94901 5.56427 7.9466 8.17605C7.94659 8.49092 7.91228 8.79503 7.79175 9.08299C7.55829 9.6399 7.15904 9.9782 6.61334 10.1105C6.47664 10.1412 6.3373 10.1559 6.19772 10.1544C5.31038 10.1587 4.42297 10.1572 3.53562 10.1571C3.46637 10.1571 3.41027 10.2134 3.41027 10.2829C3.4105 11.032 3.41258 11.7811 3.41286 12.5301C3.41289 12.61 3.48622 12.6697 3.56414 12.6531C4.12145 12.5345 4.61824 12.4209 5.15534 12.2636C5.21625 12.2457 5.25397 12.1849 5.24334 12.1221C5.20677 11.907 5.12514 11.4217 5.07534 11.0811C5.06436 11.0058 5.12294 10.9389 5.19885 10.9389L7.29183 10.939C7.3537 10.9391 7.40617 10.9832 7.41558 11.0446C7.53972 11.8551 7.71756 13.0347 7.86967 14.0473C8.02962 15.1123 7.20718 16.0695 6.13357 16.0695H5.93276C5.87144 16.0695 5.81909 16.025 5.80901 15.9643L5.66105 15.074C5.64886 15.0007 5.57678 14.9537 5.50522 14.973C4.94928 15.1229 2.78731 15.7061 1.61654 16.021C1.50896 16.0499 1.39624 16.004 1.33831 15.9086L0.918266 15.2163C0.68674 14.8348 0.608272 14.3793 0.69878 13.942L0.905854 12.9412C0.909324 12.9244 0.911131 12.9073 0.911138 12.8902L0.916422 0.341669C0.916459 0.272193 0.971898 0.215828 1.04116 0.215827C1.41822 0.215819 2.56476 0.215787 3.2864 0.21509C3.35573 0.215022 3.41149 0.271384 3.4115 0.340931V0.71821C3.63831 0.430533 4.00853 0.216744 4.38407 0.214844H7.83292ZM3.53685 6.51098C3.46801 6.51105 3.41212 6.56666 3.41163 6.63572C3.41005 6.85969 3.40828 7.15531 3.40733 7.32096C3.40692 7.39071 3.46278 7.44751 3.53231 7.44754C3.86282 7.44762 4.77035 7.44779 5.34878 7.44803C5.41807 7.44805 5.474 7.39171 5.474 7.32219V6.63498C5.474 6.56543 5.41774 6.50907 5.34841 6.50914L3.53685 6.51098ZM5.33858 2.90237C4.73924 2.90096 4.13978 2.90688 3.54042 2.90766C3.47139 2.90775 3.41529 2.96364 3.41494 3.03289C3.41382 3.25967 3.41288 3.48655 3.41261 3.71334C3.41255 3.78282 3.46869 3.83918 3.53796 3.83918H5.33563C5.40489 3.83917 5.46099 3.78281 5.46122 3.71334C5.4619 3.48456 5.46407 3.25562 5.46319 3.02686C5.4629 2.95804 5.40719 2.90254 5.33858 2.90237Z" fill="white"/>
<path d="M27.6667 3.43487C27.7091 3.41275 27.757 3.40347 27.8048 3.4044C27.926 3.40676 28.1 3.39852 28.1881 3.38979C29.1618 3.29325 29.6796 2.43571 29.5961 1.59283C29.5118 0.743206 28.6322 0.135867 27.8207 0.216317C26.8469 0.312857 26.1307 1.07841 26.2143 1.92129C26.2591 2.37385 26.4578 2.74785 26.7862 3.01392C26.8416 3.05879 26.8805 3.1218 26.889 3.19256L26.9409 3.62134C26.9515 3.70863 27.0461 3.75845 27.1241 3.71779L27.6667 3.43487Z" fill="white"/>
<path d="M29.541 3.63754C29.4932 3.61899 29.4408 3.61619 29.3897 3.62143C29.3003 3.63059 29.1911 3.62957 29.1197 3.6324C28.2723 3.66598 27.6807 3.01564 27.6496 2.22975C27.6182 1.43756 28.2989 0.768295 29.0051 0.740313C29.8525 0.706736 30.5606 1.32098 30.5917 2.10687C30.609 2.54436 30.542 2.78917 30.2969 3.19699C30.2728 3.23709 30.2596 3.28303 30.2596 3.32981L30.2596 3.73233C30.2596 3.82078 30.1707 3.88163 30.0882 3.84966L29.541 3.63754Z" fill="#04B560"/>
</svg>
