<svg width="31" height="17" viewBox="0 0 31 17" fill="none" xmlns="http://www.w3.org/2000/svg">
<path d="M14.6033 0.836921C14.6725 0.836996 14.728 0.888711 14.728 0.95809C14.729 1.97395 14.7358 9.13117 14.7306 12.8441C14.7306 13.3453 14.5516 13.7751 14.2267 14.1279C13.9379 14.4411 13.5847 14.6259 13.173 14.6365C12.7113 14.6489 12.2491 14.6412 11.782 14.6399C11.7127 14.6397 11.6566 14.5834 11.6565 14.5139V11.9982C11.6565 11.9287 11.7126 11.8724 11.7819 11.8724H11.9809C12.1194 11.8724 12.2316 11.7597 12.2317 11.6207V3.70196C12.2317 3.63248 12.1758 3.57615 12.1066 3.57612H11.3075C11.2383 3.57614 11.1823 3.62781 11.1823 3.69729C11.1828 4.66479 11.1855 11.182 11.1794 14.566C11.1794 14.6863 11.1796 14.8072 11.18 14.9284C11.183 15.9014 10.4007 16.6906 9.43077 16.6914C9.22286 16.6915 9.0149 16.6916 8.80699 16.6916C8.73773 16.6916 8.68153 16.6362 8.68152 16.5668C8.68132 15.372 8.67989 5.89837 8.68066 0.960547C8.68068 0.891082 8.73676 0.837563 8.806 0.837535H11.0519C11.1212 0.837535 11.1774 0.893895 11.1774 0.963374V1.33929C11.1774 1.33929 11.8298 0.837412 12.2363 0.837412C12.9004 0.835299 14.1973 0.836477 14.6033 0.836921Z" fill="#2B2B2B"/>
<path d="M26.148 0.837044C26.2109 0.837037 26.264 0.88385 26.2723 0.946415L26.2926 1.10036C26.3016 1.16844 26.2818 1.23681 26.2415 1.29245C25.968 1.67057 25.8274 2.12612 25.8741 2.59768C25.9353 3.21529 26.2205 3.62445 26.5723 3.98737C26.6088 4.02503 26.6335 4.07263 26.6422 4.12436L26.7898 5.00938C26.8037 5.09285 26.8945 5.13903 26.9702 5.10118L27.5937 4.78928C27.6357 4.76828 27.682 4.75735 27.729 4.75738C28.4402 4.75774 29.216 4.75751 29.6407 4.75727C29.6945 4.75724 29.7474 4.7716 29.7938 4.79888L30.3083 5.10109C30.3643 5.13396 30.3932 5.19912 30.3782 5.26225C30.0572 6.60851 29.1145 7.4974 27.7108 7.49961C27.522 7.49991 27.3331 7.50006 27.1443 7.5001C27.1055 7.50012 27.0754 7.53418 27.08 7.57286L27.3001 9.39838C27.3107 9.48626 27.406 9.536 27.4838 9.49423L29.9213 8.18398C30.0049 8.13907 30.106 8.19939 30.106 8.29446V8.89072C30.106 10.216 29.4121 11.4442 28.2521 12.0785C28.0616 12.1827 27.9416 12.2473 27.9416 12.2473L27.5866 12.4362C27.5405 12.4607 27.5143 12.5107 27.5208 12.5625C27.5507 12.7995 27.6351 13.4693 27.6792 13.824C27.6871 13.887 27.7404 13.9341 27.8037 13.9341H30.3371C30.3741 13.9341 30.404 13.9656 30.4041 14.0027C30.4048 15.4873 29.2133 16.683 27.7333 16.6872C27.5689 16.6877 27.438 16.6884 27.3586 16.6895C26.985 16.6949 26.6169 16.6707 26.2719 16.5085C25.5855 16.1857 25.221 15.6082 25.1276 14.8285C25.0966 14.5712 25.0724 14.4171 25.0278 14.1091C25.0149 14.0207 24.917 13.9732 24.8399 14.0178C24.1937 14.3912 23.5228 14.7511 22.8547 15.0971C22.7723 15.1398 22.6742 15.0812 22.673 14.9882C22.6617 14.1152 22.6759 12.6476 22.6796 12.3004C22.6801 12.2535 22.7066 12.212 22.7482 12.1905C23.4003 11.8543 24.0228 11.4651 24.6648 11.1107C24.7541 11.0614 24.8059 10.9636 24.7949 10.8619C24.7384 10.3381 24.5626 8.71049 24.4551 7.72376C24.4412 7.59641 24.3342 7.49975 24.2065 7.49961C23.3687 7.49877 22.5309 7.50608 21.693 7.50662C21.5548 7.50671 21.4424 7.6186 21.4422 7.75731C21.4419 8.04907 21.4423 8.40225 21.4426 8.60267C21.4427 8.68407 21.5188 8.74357 21.5977 8.72433L23.3238 8.30319C23.3689 8.2922 23.4123 8.32633 23.4123 8.37287V9.8962C23.4122 10.5542 22.994 11.1594 22.3591 11.3245C22.1291 11.3842 21.7111 11.5143 21.5308 11.5711C21.479 11.5874 21.444 11.634 21.4436 11.6885C21.4399 12.1406 21.4198 14.1812 21.3528 15.2271C21.2267 15.6372 21.0256 16.0575 20.6919 16.3127C20.3805 16.5512 20.0329 16.6847 19.6491 16.6878C18.6116 16.696 17.574 16.6818 16.5365 16.6878C16.467 16.6882 16.4103 16.632 16.4102 16.5623C16.4091 16.1484 16.4062 14.8156 16.41 14.0468C16.4104 13.9775 16.4661 13.9223 16.5351 13.9224C17.2279 13.9235 18.3456 13.9226 18.7172 13.9223C18.7864 13.9222 18.8418 13.8659 18.8418 13.7965V12.3696C18.8418 12.2887 18.7668 12.2287 18.6883 12.247C18.2959 12.3379 17.2396 12.5839 16.5663 12.7497C16.4871 12.7691 16.4106 12.71 16.4106 12.6282C16.4107 11.9864 16.4107 10.4606 16.4108 10.0568C16.4108 9.99847 16.4498 9.94809 16.5064 9.93467C16.8869 9.8444 18.2888 9.5117 18.6204 9.42996C18.8291 9.3785 18.8442 9.3553 18.8466 9.12925C18.8513 8.66587 18.8553 8.20241 18.8555 7.739C18.8556 7.60083 18.7443 7.48875 18.6066 7.48818C17.9165 7.4855 17.2259 7.48757 16.5359 7.48782C16.4665 7.48781 16.4103 7.43131 16.4104 7.36173C16.4118 6.53289 16.4104 5.70403 16.4103 4.87519C16.4103 4.80595 16.466 4.74972 16.535 4.74947C17.2208 4.74716 17.9066 4.75388 18.5924 4.75537C18.7314 4.75567 18.844 4.64225 18.8439 4.50283C18.8437 4.30142 18.8442 4.1 18.8443 3.89859C18.8444 3.82491 18.7816 3.76695 18.7084 3.77312C17.9883 3.83401 17.2676 3.893 16.5486 3.96654C16.4746 3.97412 16.4102 3.91636 16.4102 3.84169V1.58028C16.4102 1.51549 16.4592 1.46144 16.5235 1.45518L22.7571 0.849578C22.828 0.842691 22.8899 0.895613 22.8908 0.96706C22.8968 1.4382 22.8482 3.04836 21.9303 3.43689C21.8 3.49212 21.6647 3.53278 21.5318 3.58067C21.4832 3.59821 21.4516 3.64498 21.4517 3.6968L21.4527 4.51008C21.4529 4.64895 21.5652 4.76139 21.7036 4.76139H23.9062C24.0554 4.76138 24.1718 4.63264 24.1556 4.48379C24.0819 3.80625 23.8895 2.04567 23.7653 0.977383C23.7566 0.902511 23.8145 0.83699 23.8897 0.837044C24.6322 0.837568 25.7893 0.837193 26.148 0.837044Z" fill="#2B2B2B"/>
<path fill-rule="evenodd" clip-rule="evenodd" d="M8.00268 0.835938C8.07196 0.835938 8.12815 0.892278 8.12815 0.961776C8.12786 3.57349 8.11876 6.18524 8.11635 8.79696C8.11635 9.11182 8.08204 9.41593 7.96151 9.70388C7.72805 10.2608 7.32881 10.5991 6.78312 10.7314C6.64643 10.762 6.50709 10.7767 6.36751 10.7752C5.4802 10.7796 4.5928 10.7781 3.70548 10.7779C3.63622 10.7779 3.58013 10.8343 3.58013 10.9038C3.58036 11.6528 3.58244 12.4019 3.58271 13.1509C3.58275 13.2308 3.65608 13.2905 3.73399 13.2739C4.29129 13.1553 4.78807 13.0417 5.32516 12.8844C5.38606 12.8665 5.42379 12.8057 5.41315 12.7429C5.37658 12.5279 5.29496 12.0425 5.24516 11.7019C5.23418 11.6266 5.29276 11.5597 5.36866 11.5598L7.46159 11.5599C7.52347 11.5599 7.57594 11.6041 7.58534 11.6654C7.70948 12.4759 7.88732 13.6555 8.03942 14.6681C8.19937 15.733 7.37695 16.6902 6.30336 16.6903H6.10256C6.04124 16.6903 5.98889 16.6457 5.97881 16.5851L5.83085 15.6947C5.81866 15.6214 5.74659 15.5744 5.67503 15.5937C5.1191 15.7437 2.95718 16.3268 1.78644 16.6417C1.67886 16.6707 1.56615 16.6247 1.50822 16.5293L1.08818 15.837C0.856661 15.4556 0.778195 15.0001 0.868701 14.5628L1.07577 13.562C1.07924 13.5452 1.08105 13.5281 1.08105 13.511L1.08634 0.962759C1.08637 0.893286 1.14181 0.836922 1.21107 0.836921C1.58813 0.836913 2.73464 0.836881 3.45626 0.836183C3.52559 0.836116 3.58135 0.892477 3.58136 0.962022V1.33929C3.80816 1.05162 4.17837 0.837838 4.55391 0.835938H8.00268ZM3.70671 7.13193C3.63786 7.132 3.58198 7.18761 3.58148 7.25666C3.57991 7.48062 3.57814 7.77624 3.57718 7.94189C3.57678 8.01164 3.63263 8.06843 3.70216 8.06847C4.03267 8.06854 4.94017 8.06871 5.51859 8.06896C5.58788 8.06898 5.64381 8.01264 5.64381 7.94312V7.25592C5.64381 7.18638 5.58755 7.13002 5.51822 7.13008L3.70671 7.13193ZM5.50839 3.52341C4.90906 3.52199 4.30962 3.52791 3.71027 3.52869C3.64125 3.52878 3.58515 3.58467 3.5848 3.65391C3.58368 3.8807 3.58274 4.10757 3.58247 4.33435C3.58241 4.40383 3.63855 4.46019 3.70781 4.46019H5.50544C5.5747 4.46018 5.6308 4.40382 5.63103 4.33435C5.63171 4.10558 5.63387 3.87664 5.633 3.64789C5.63272 3.57907 5.577 3.52357 5.50839 3.52341Z" fill="#2B2B2B"/>
<path d="M27.8197 4.08207C27.8619 4.06016 27.9095 4.05097 27.957 4.05193C28.0803 4.05443 28.2585 4.04606 28.3485 4.03718C29.3387 3.93942 29.8653 3.07105 29.7803 2.21754C29.6947 1.3572 28.9251 0.836722 27.975 0.836733C27.0463 0.836744 26.2563 1.69664 26.3413 2.55015C26.3869 3.00899 26.5894 3.38808 26.9241 3.65758C26.9797 3.70231 27.0187 3.76533 27.0273 3.83611L27.0806 4.27461C27.0912 4.36163 27.1854 4.41138 27.2632 4.371L27.8197 4.08207Z" fill="#2B2B2B"/>
<path d="M28.9106 4.0336C29.0227 4.05731 29.1917 4.05348 29.3145 4.05119C29.3629 4.05042 29.412 4.0596 29.455 4.08177L30.0071 4.36849C30.0862 4.40977 30.1829 4.35931 30.1937 4.27062L30.2467 3.83634C30.2551 3.76447 30.295 3.70101 30.3511 3.65514C30.7139 3.36351 30.8328 3.00387 30.8328 2.52808C30.8328 1.73409 30.0462 1.10757 29.1847 1.14198C28.4661 1.17027 27.7742 1.84768 27.8057 2.64972C27.8326 3.31949 28.2848 3.89139 28.9106 4.0336Z" fill="#09B83E"/>
</svg>
